<svg xmlns="http://www.w3.org/2000/svg" width="44" height="44" fill="none"><rect width="44" height="44" fill="#fff" rx="22"/>
<path fill="#5cb85c" d="M30.044 13.196H13.956A1.959 1.959 0 0 0 12 15.152v10.435c0 1.079.878 1.957 1.957 1.957h5.784l1.694 2.934c.251.435.88.434 1.13 0l1.694-2.934h5.784A1.959 1.959 0 0 0 32 25.587V15.152a1.959 1.959 0 0 0-1.956-1.956Zm.652 12.391c0 .36-.293.652-.652.652h-6.161a.652.652 0 0 0-.565.326L22 28.848l-1.318-2.283a.652.652 0 0 0-.565-.326h-6.16a.653.653 0 0 1-.653-.652V15.152c0-.36.293-.652.652-.652h16.088c.36 0 .652.293.652.652v10.435Z"/><path fill="#5cb85c" d="m26.09 17.573-1.854.785a.653.653 0 0 0-.138 1.121l.235.178-1.481 1.863-2.09-2.627a.652.652 0 0 0-1.02 0l-2.6 3.269a.652.652 0 1 0 1.02.812l2.09-2.627 2.09 2.627a.652.652 0 0 0 1.02 0l2.013-2.53.333.25c.397.3.978.061 1.04-.44l.247-2.002a.653.653 0 0 0-.905-.68Z"/>
</svg>