<svg xmlns="http://www.w3.org/2000/svg" width="44" height="44" fill="none">
<rect width="44" height="44" fill="#fff" rx="22"/>
<path fill="#5cb85c" d="M26.057 16.543c.85-1.02 1.36-2.335 1.36-3.694a.854.854 0 0 0-.85-.849h-9.13a.854.854 0 0 0-.85.849c0 1.36.466 2.673 1.36 3.694-2.804 1.657-4.588 4.967-4.588 8.62 0 6.115 4.927 6.837 8.62 6.837 3.695 0 8.621-.722 8.662-6.837 0-3.608-1.784-6.922-4.584-8.62ZM21.98 30.302c-4.927 0-6.963-1.486-6.963-5.139 0-3.228 1.657-6.155 4.244-7.432.34-.172.596-.51.637-.89.041-.384-.086-.808-.383-1.061a3.926 3.926 0 0 1-1.188-2.082h7.302a3.98 3.98 0 0 1-1.188 2.082c-.298.253-.424.677-.384 1.06.041.384.298.723.637.89 2.592 1.274 4.245 4.205 4.245 7.433.004 3.653-2.033 5.139-6.96 5.139Z"/>
<path fill="#5cb85c" stroke="#5cb85c" stroke-width=".1" d="M22.6 19.664h-.05V20.43h.926V19.664h-.875ZM22.55 22.78a1.826 1.826 0 0 0-1.049-.33 1.839 1.839 0 0 0-1.837 1.837c0 1.013.824 1.837 1.837 1.837.39 0 .752-.122 1.05-.33v.298h.925v-4.8h-.925v1.489Zm-1.049.458a1.05 1.05 0 0 1 0 2.098 1.05 1.05 0 0 1 0-2.098ZM20.272 26.36h-.05V27.146H23.476v-.788H20.272ZM21.74 20.467h-.05v.788H24.337v-.788H21.74Z"/>
</svg>